<svg xmlns="http://www.w3.org/2000/svg" viewBox="0 0 180 90">
  <path fill="#FEEEDB" d="M143 0L90 61.2 37 0H12l78 90 78-90"/>
  <path fill="#727171" d="M2 74.3V69h.8v4.1L5.6 69h.8v5.3h-.8v-4.1l-2.8 4.1H2zm6 0V69h.8v2.2h2.8V69h.8v5.3h-.8V72H8.8v2.4H8zm7 0v-4.6h-1.5V69h3.9v.7h-1.6v4.6H15zm3.2-2.6c0-1.5 1.1-2.8 2.6-2.8 1.6 0 2.6 1.3 2.6 2.8v.2H19c.1 1 .8 1.8 1.9 1.8.6 0 1.2-.2 1.6-.7l.4.5c-.5.5-1.2.8-2.1.8-1.5.2-2.6-1-2.6-2.6zm2.6-2.1c-1.1 0-1.7 1-1.7 1.8h3.5c-.1-.8-.6-1.8-1.8-1.8zm4.7 3.9v2.8h-.8V69h.8v.8c.4-.5 1-.9 1.8-.9 1.4 0 2.4 1.1 2.4 2.8 0 1.7-1 2.8-2.4 2.8-.8 0-1.4-.4-1.8-1zm3.3-1.8c0-1.2-.6-2-1.7-2-.6 0-1.3.4-1.6.8v2.4c.3.5.9.9 1.6.9 1-.1 1.7-.9 1.7-2.1zm2.1 2.6V69h.8v2.2h2.8V69h.8v5.3h-.8V72h-2.8v2.4h-.8zm5.8-2.6c0-1.5 1.1-2.8 2.6-2.8 1.6 0 2.6 1.3 2.6 2.8v.2h-4.3c.1 1 .8 1.8 1.9 1.8.6 0 1.2-.2 1.6-.7l.4.5c-.5.5-1.2.8-2.1.8-1.6.2-2.7-1-2.7-2.6zm2.6-2.1c-1.1 0-1.7 1-1.7 1.8H41c0-.8-.5-1.8-1.7-1.8zm4.8 4.7v-4.6h-1.5V69h3.9v.7h-1.6v4.6h-.8zM47 72v-.7h2.6v.7H47zm8.4 2.3v-4.2l-1.7 4.2h-.3l-1.7-4.2v4.2h-.8V69H52l1.6 3.9 1.6-3.9h1.1v5.3h-.9zm5.8 0v-.6c-.4.5-1 .7-1.8.7-.9 0-1.9-.6-1.9-1.8 0-1.2 1-1.8 1.9-1.8.7 0 1.3.2 1.8.7v-1c0-.7-.6-1.1-1.3-1.1-.6 0-1.2.2-1.6.7l-.4-.6c.6-.6 1.3-.9 2.1-.9 1.1 0 2.1.5 2.1 1.8v3.7h-.9zm0-1.1v-1c-.3-.4-.9-.7-1.5-.7-.8 0-1.3.5-1.3 1.2s.5 1.2 1.3 1.2c.6 0 1.2-.2 1.5-.7zm6.2-3.5h-2.9v4.6h-.8V69h3.7v.7zm4.3 4.6v-.6c-.4.5-1 .7-1.8.7-.9 0-1.9-.6-1.9-1.8 0-1.2 1-1.8 1.9-1.8.7 0 1.3.2 1.8.7v-1c0-.7-.6-1.1-1.3-1.1-.6 0-1.2.2-1.6.7l-.4-.6c.6-.6 1.3-.9 2.1-.9 1.1 0 2.1.5 2.1 1.8v3.7h-.9zm0-1.1v-1c-.3-.4-.9-.7-1.5-.7-.8 0-1.3.5-1.3 1.2s.5 1.2 1.3 1.2c.6 0 1.2-.2 1.5-.7zm2 .4l.4-.5c.5.5 1.2.7 2 .7.9 0 1.6-.4 1.6-.9 0-.7-.7-.9-1.7-.9h-1.2v-.7H76c.9 0 1.6-.3 1.6-.9 0-.5-.7-.8-1.6-.8-.7 0-1.3.2-1.8.7l-.4-.5c.5-.5 1.2-.8 2.2-.8 1.4 0 2.4.5 2.4 1.4 0 .8-.8 1.2-1.4 1.3.6 0 1.5.4 1.5 1.3s-.9 1.6-2.4 1.6c-1.1-.1-1.9-.5-2.4-1zm6.1.7V69h.8v4.1l2.8-4.1h.8v5.3h-.8v-4.1l-2.8 4.1h-.8zm6.1 0V69h.8v2.2h2.8V69h.8v5.3h-.8V72h-2.8v2.4h-.8zm8.2-.6c.5-.1.8-.4 1-2l.3-2.6h3.7v4.6h.6v2.1h-.8v-1.4h-4v1.4h-.8v-2.1zm1.8-2c-.1 1-.4 1.6-.8 1.9h3.2v-3.9h-2.1l-.3 2zm4.7 0c0-1.5 1-2.8 2.6-2.8s2.6 1.2 2.6 2.8-1 2.8-2.6 2.8-2.6-1.3-2.6-2.8zm4.4 0c0-1.1-.6-2-1.8-2s-1.8 1-1.8 2c0 1.1.6 2.1 1.8 2.1s1.8-1 1.8-2.1zm1.8 0c0-1.6 1.1-2.8 2.7-2.8 1 0 1.5.4 1.9.9l-.6.5c-.4-.5-.8-.7-1.4-.7-1.1 0-1.8.9-1.8 2 0 1.2.7 2.1 1.8 2.1.5 0 1-.2 1.4-.7l.6.5c-.4.5-1 .9-1.9.9-1.6.1-2.7-1.1-2.7-2.7zm6.7 2.6v-4.6H112V69h3.9v.7h-1.6v4.6h-.8zm3.3 1.4c.1.1.3.1.5.1.4 0 .6-.1.8-.6l.4-.8-2.2-5.4h.9l1.8 4.4 1.8-4.4h.9l-2.7 6.4c-.3.8-.9 1.1-1.6 1.1-.2 0-.5 0-.6-.1v-.7zm9.1-1.4v-4.6h-2.8v4.6h-.8V69h4.4v5.3h-.8zm2.5 0V69h.8v2.2h2.8V69h.8v5.3h-.8V72h-2.8v2.4h-.8zm5.7-2.6c0-1.5 1-2.8 2.6-2.8s2.6 1.2 2.6 2.8-1 2.8-2.6 2.8-2.6-1.3-2.6-2.8zm4.4 0c0-1.1-.6-2-1.8-2s-1.8 1-1.8 2c0 1.1.6 2.1 1.8 2.1s1.8-1 1.8-2.1zm2.2 2.6V69h.8v4.1l2.8-4.1h.8v5.3h-.8v-4.1l-2.8 4.1h-.8zm2.2-5.9c-.8 0-1.5-.4-1.9-1l.4-.4c.4.5.9.8 1.5.8s1.2-.3 1.5-.8l.4.4c-.4.6-1.1 1-1.9 1zm6.4 3.3c0-1.5 1-2.8 2.6-2.8s2.6 1.2 2.6 2.8-1 2.8-2.6 2.8-2.6-1.3-2.6-2.8zm4.4 0c0-1.1-.6-2-1.8-2s-1.8 1-1.8 2c0 1.1.6 2.1 1.8 2.1s1.8-1 1.8-2.1zm1.8-.3c0-2.6.9-3.7 2.8-3.9 1.2-.2 1.5-.3 1.5-.5h.8c0 .9-1.2 1.1-2.1 1.2-1.6.2-2 .9-2.2 1.8.4-.6 1.1-1.1 2-1.1 1.5 0 2.5 1.3 2.5 2.8 0 1.5-1 2.8-2.6 2.8-1.7 0-2.7-1.3-2.7-3.1zm4.4.3c0-1.1-.6-2-1.8-2s-1.8 1-1.8 2c0 1.1.6 2.1 1.8 2.1s1.8-1 1.8-2.1zm2.1 4c.1.1.3.1.5.1.4 0 .6-.1.8-.6l.4-.8-2.2-5.4h.9l1.8 4.4L166 69h.9l-2.7 6.4c-.3.8-.9 1.1-1.6 1.1-.2 0-.5 0-.6-.1v-.7zm5.5-1.4V69h2.9c.9 0 1.5.6 1.5 1.4 0 .6-.4 1.1-.9 1.2.5.1 1 .7 1 1.3 0 .9-.6 1.4-1.6 1.4h-2.9zm3.6-3.8c0-.5-.3-.8-.8-.8h-2v1.5h2c.5 0 .8-.3.8-.7zm.1 2.3c0-.4-.3-.8-.9-.8h-2v1.6h2c.6 0 .9-.3.9-.8zm2.4 1.5V69h.8v4.1l2.8-4.1h.8v5.3h-.8v-4.1l-2.8 4.1h-.8z"/>
  <path fill="#161616" d="M56.4 59.3l-3.6-5.6-.9 1.2v4.4h-4.8v-16h4.8v6l4.2-6H62l-6 7.4 6.3 8.6h-5.9zm6.9-3.9c1.4 0 2.4-.9 2.8-4l1-8.1h12.5v16h-4.8V47.6h-3.3l-.5 4.2c-.8 6.3-3.9 7.9-7.6 7.9v-4.3zm30.5 3.9l-.6-1.9h-5.8l-.6 1.9h-5.5l5.9-16h6.1l5.9 16h-5.4zm-3.5-11.2l-1.6 5.2h3.2l-1.6-5.2zm9.9 3.2c0-4.9 3.8-8.3 8.8-8.3 4.2 0 6.3 2.4 7.3 4.7l-4.2 1.9c-.4-1.2-1.7-2.3-3.1-2.3-2.3 0-3.9 1.8-3.9 4s1.6 4 3.9 4c1.4 0 2.7-1.1 3.1-2.3l4.2 1.9c-.9 2.1-3.1 4.7-7.3 4.7-5 0-8.8-3.3-8.8-8.3zm17.7 0c0-4.9 3.8-8.3 8.8-8.3 4.2 0 6.3 2.4 7.3 4.7l-4.2 1.9c-.4-1.2-1.7-2.3-3.1-2.3-2.3 0-3.9 1.8-3.9 4s1.6 4 3.9 4c1.4 0 2.7-1.1 3.1-2.3l4.2 1.9c-.9 2.1-3.1 4.7-7.3 4.7-5 0-8.8-3.3-8.8-8.3zM45.4 26.7c0-6.4 4.9-10.7 11.4-10.7 5.4 0 8.2 3.2 9.4 6l-5.4 2.5c-.5-1.6-2.1-3-4-3-3 0-5 2.3-5 5.2 0 2.9 2 5.2 5 5.2 1.9 0 3.5-1.4 4-3l5.4 2.5c-1.2 2.8-4 6-9.4 6-6.5 0-11.4-4.4-11.4-10.7zm24 10.3V16.3h6.3v11l7.2-11h6.4V37H83V25.3L75.4 37h-6zm28.9 0V21.8h-5.5v-5.5h17.3v5.5h-5.5V37h-6.3zm15.3 0V16.3h6.3v11l7.2-11h6.4V37h-6.3V25.3L119.6 37h-6z"/>
</svg>
